<?xml version="1.0" encoding="UTF-8" standalone="no"?><svg xmlns="http://www.w3.org/2000/svg" xmlns:xlink="http://www.w3.org/1999/xlink" contentScriptType="application/ecmascript" contentStyleType="text/css" height="622px" preserveAspectRatio="none" style="width:605px;height:622px;" version="1.1" viewBox="0 0 605 622" width="605px" zoomAndPan="magnify"><defs><filter height="300%" id="fawy54wc4rf2m" width="300%" x="-1" y="-1"><feGaussianBlur result="blurOut" stdDeviation="2.0"/><feColorMatrix in="blurOut" result="blurOut2" type="matrix" values="0 0 0 0 0 0 0 0 0 0 0 0 0 0 0 0 0 0 .4 0"/><feOffset dx="4.0" dy="4.0" in="blurOut2" result="blurOut3"/><feBlend in="SourceGraphic" in2="blurOut3" mode="normal"/></filter></defs><g><line style="stroke: #A80036; stroke-width: 1.0; stroke-dasharray: 5.0,5.0;" x1="55" x2="55" y1="38.2969" y2="582.6875"/><line style="stroke: #A80036; stroke-width: 1.0; stroke-dasharray: 5.0,5.0;" x1="294.5" x2="294.5" y1="38.2969" y2="582.6875"/><line style="stroke: #A80036; stroke-width: 1.0; stroke-dasharray: 5.0,5.0;" x1="558.5" x2="558.5" y1="38.2969" y2="582.6875"/><rect fill="#FEFECE" filter="url(#fawy54wc4rf2m)" height="30.2969" style="stroke: #A80036; stroke-width: 1.5;" width="91" x="8" y="3"/><text fill="#000000" font-family="sans-serif" font-size="14" lengthAdjust="spacingAndGlyphs" textLength="77" x="15" y="22.9951">Wire owner</text><rect fill="#FEFECE" filter="url(#fawy54wc4rf2m)" height="30.2969" style="stroke: #A80036; stroke-width: 1.5;" width="91" x="8" y="581.6875"/><text fill="#000000" font-family="sans-serif" font-size="14" lengthAdjust="spacingAndGlyphs" textLength="77" x="15" y="601.6826">Wire owner</text><rect fill="#FEFECE" filter="url(#fawy54wc4rf2m)" height="30.2969" style="stroke: #A80036; stroke-width: 1.5;" width="40" x="272.5" y="3"/><text fill="#000000" font-family="sans-serif" font-size="14" lengthAdjust="spacingAndGlyphs" textLength="26" x="279.5" y="22.9951">LER</text><rect fill="#FEFECE" filter="url(#fawy54wc4rf2m)" height="30.2969" style="stroke: #A80036; stroke-width: 1.5;" width="40" x="272.5" y="581.6875"/><text fill="#000000" font-family="sans-serif" font-size="14" lengthAdjust="spacingAndGlyphs" textLength="26" x="279.5" y="601.6826">LER</text><rect fill="#FEFECE" filter="url(#fawy54wc4rf2m)" height="30.2969" style="stroke: #A80036; stroke-width: 1.5;" width="76" x="518.5" y="3"/><text fill="#000000" font-family="sans-serif" font-size="14" lengthAdjust="spacingAndGlyphs" textLength="62" x="525.5" y="22.9951">Dig actor</text><rect fill="#FEFECE" filter="url(#fawy54wc4rf2m)" height="30.2969" style="stroke: #A80036; stroke-width: 1.5;" width="76" x="518.5" y="581.6875"/><text fill="#000000" font-family="sans-serif" font-size="14" lengthAdjust="spacingAndGlyphs" textLength="62" x="525.5" y="601.6826">Dig actor</text><polygon fill="#A80036" points="282.5,65.4297,292.5,69.4297,282.5,73.4297,286.5,69.4297" style="stroke: #A80036; stroke-width: 1.0;"/><line style="stroke: #A80036; stroke-width: 1.0;" x1="55.5" x2="288.5" y1="69.4297" y2="69.4297"/><text fill="#000000" font-family="sans-serif" font-size="13" lengthAdjust="spacingAndGlyphs" textLength="83" x="62.5" y="64.3638">Get requests</text><polygon fill="#A80036" points="66.5,94.5625,56.5,98.5625,66.5,102.5625,62.5,98.5625" style="stroke: #A80036; stroke-width: 1.0;"/><line style="stroke: #A80036; stroke-width: 1.0; stroke-dasharray: 2.0,2.0;" x1="60.5" x2="293.5" y1="98.5625" y2="98.5625"/><text fill="#000000" font-family="sans-serif" font-size="13" lengthAdjust="spacingAndGlyphs" textLength="87" x="72.5" y="93.4966">(nothing new)</text><polygon fill="#A80036" points="305.5,123.6953,295.5,127.6953,305.5,131.6953,301.5,127.6953" style="stroke: #A80036; stroke-width: 1.0;"/><line style="stroke: #A80036; stroke-width: 1.0;" x1="299.5" x2="557.5" y1="127.6953" y2="127.6953"/><text fill="#000000" font-family="sans-serif" font-size="13" lengthAdjust="spacingAndGlyphs" textLength="119" x="311.5" y="122.6294">Create dig request</text><polygon fill="#A80036" points="546.5,152.8281,556.5,156.8281,546.5,160.8281,550.5,156.8281" style="stroke: #A80036; stroke-width: 1.0;"/><line style="stroke: #A80036; stroke-width: 1.0; stroke-dasharray: 2.0,2.0;" x1="294.5" x2="552.5" y1="156.8281" y2="156.8281"/><text fill="#000000" font-family="sans-serif" font-size="13" lengthAdjust="spacingAndGlyphs" textLength="61" x="301.5" y="151.7622">(Created)</text><polygon fill="#A80036" points="282.5,181.9609,292.5,185.9609,282.5,189.9609,286.5,185.9609" style="stroke: #A80036; stroke-width: 1.0;"/><line style="stroke: #A80036; stroke-width: 1.0;" x1="55.5" x2="288.5" y1="185.9609" y2="185.9609"/><text fill="#000000" font-family="sans-serif" font-size="13" lengthAdjust="spacingAndGlyphs" textLength="215" x="62.5" y="180.895">Retrieve requests (integration 10)</text><polygon fill="#A80036" points="305.5,211.0938,295.5,215.0938,305.5,219.0938,301.5,215.0938" style="stroke: #A80036; stroke-width: 1.0;"/><line style="stroke: #A80036; stroke-width: 1.0;" x1="299.5" x2="557.5" y1="215.0938" y2="215.0938"/><text fill="#000000" font-family="sans-serif" font-size="13" lengthAdjust="spacingAndGlyphs" textLength="210" x="311.5" y="210.0278">Retrieve status on wire packages</text><polygon fill="#A80036" points="66.5,240.2266,56.5,244.2266,66.5,248.2266,62.5,244.2266" style="stroke: #A80036; stroke-width: 1.0;"/><line style="stroke: #A80036; stroke-width: 1.0; stroke-dasharray: 2.0,2.0;" x1="60.5" x2="293.5" y1="244.2266" y2="244.2266"/><text fill="#000000" font-family="sans-serif" font-size="13" lengthAdjust="spacingAndGlyphs" textLength="89" x="72.5" y="239.1606">(Request info)</text><polygon fill="#A80036" points="546.5,269.3594,556.5,273.3594,546.5,277.3594,550.5,273.3594" style="stroke: #A80036; stroke-width: 1.0;"/><line style="stroke: #A80036; stroke-width: 1.0; stroke-dasharray: 2.0,2.0;" x1="294.5" x2="552.5" y1="273.3594" y2="273.3594"/><text fill="#000000" font-family="sans-serif" font-size="13" lengthAdjust="spacingAndGlyphs" textLength="178" x="301.5" y="268.2935">(Status: request in process)</text><polygon fill="#A80036" points="282.5,298.4922,292.5,302.4922,282.5,306.4922,286.5,302.4922" style="stroke: #A80036; stroke-width: 1.0;"/><line style="stroke: #A80036; stroke-width: 1.0;" x1="55.5" x2="288.5" y1="302.4922" y2="302.4922"/><text fill="#000000" font-family="sans-serif" font-size="13" lengthAdjust="spacingAndGlyphs" textLength="143" x="62.5" y="297.4263">Receit for request (11)</text><polygon fill="#A80036" points="305.5,327.625,295.5,331.625,305.5,335.625,301.5,331.625" style="stroke: #A80036; stroke-width: 1.0;"/><line style="stroke: #A80036; stroke-width: 1.0;" x1="299.5" x2="557.5" y1="331.625" y2="331.625"/><text fill="#000000" font-family="sans-serif" font-size="13" lengthAdjust="spacingAndGlyphs" textLength="233" x="311.5" y="326.5591">Retrieve Status of Wire package (25)</text><polygon fill="#A80036" points="66.5,356.7578,56.5,360.7578,66.5,364.7578,62.5,360.7578" style="stroke: #A80036; stroke-width: 1.0;"/><line style="stroke: #A80036; stroke-width: 1.0; stroke-dasharray: 2.0,2.0;" x1="60.5" x2="293.5" y1="360.7578" y2="360.7578"/><text fill="#000000" font-family="sans-serif" font-size="13" lengthAdjust="spacingAndGlyphs" textLength="25" x="72.5" y="355.6919">(ok)</text><polygon fill="#A80036" points="546.5,385.8906,556.5,389.8906,546.5,393.8906,550.5,389.8906" style="stroke: #A80036; stroke-width: 1.0;"/><line style="stroke: #A80036; stroke-width: 1.0; stroke-dasharray: 2.0,2.0;" x1="294.5" x2="552.5" y1="389.8906" y2="389.8906"/><text fill="#000000" font-family="sans-serif" font-size="13" lengthAdjust="spacingAndGlyphs" textLength="131" x="301.5" y="384.8247">(Status: In progress)</text><polygon fill="#A80036" points="282.5,415.0234,292.5,419.0234,282.5,423.0234,286.5,419.0234" style="stroke: #A80036; stroke-width: 1.0;"/><line style="stroke: #A80036; stroke-width: 1.0;" x1="55.5" x2="288.5" y1="419.0234" y2="419.0234"/><text fill="#000000" font-family="sans-serif" font-size="13" lengthAdjust="spacingAndGlyphs" textLength="175" x="62.5" y="413.9575">"Send dig request answers"</text><polygon fill="#A80036" points="66.5,444.1563,56.5,448.1563,66.5,452.1563,62.5,448.1563" style="stroke: #A80036; stroke-width: 1.0;"/><line style="stroke: #A80036; stroke-width: 1.0; stroke-dasharray: 2.0,2.0;" x1="60.5" x2="293.5" y1="448.1563" y2="448.1563"/><text fill="#000000" font-family="sans-serif" font-size="13" lengthAdjust="spacingAndGlyphs" textLength="25" x="72.5" y="443.0903">(ok)</text><polygon fill="#A80036" points="305.5,473.2891,295.5,477.2891,305.5,481.2891,301.5,477.2891" style="stroke: #A80036; stroke-width: 1.0;"/><line style="stroke: #A80036; stroke-width: 1.0;" x1="299.5" x2="557.5" y1="477.2891" y2="477.2891"/><text fill="#000000" font-family="sans-serif" font-size="13" lengthAdjust="spacingAndGlyphs" textLength="240" x="311.5" y="472.2231">Retrieve status on wire packages (25)</text><polygon fill="#A80036" points="546.5,502.4219,556.5,506.4219,546.5,510.4219,550.5,506.4219" style="stroke: #A80036; stroke-width: 1.0;"/><line style="stroke: #A80036; stroke-width: 1.0;" x1="294.5" x2="552.5" y1="506.4219" y2="506.4219"/><text fill="#000000" font-family="sans-serif" font-size="13" lengthAdjust="spacingAndGlyphs" textLength="120" x="301.5" y="501.356">(Status: complete)</text><polygon fill="#A80036" points="305.5,531.5547,295.5,535.5547,305.5,539.5547,301.5,535.5547" style="stroke: #A80036; stroke-width: 1.0;"/><line style="stroke: #A80036; stroke-width: 1.0;" x1="299.5" x2="557.5" y1="535.5547" y2="535.5547"/><text fill="#000000" font-family="sans-serif" font-size="13" lengthAdjust="spacingAndGlyphs" textLength="177" x="311.5" y="530.4888">Receit for wire package (26)</text><polygon fill="#A80036" points="546.5,560.6875,556.5,564.6875,546.5,568.6875,550.5,564.6875" style="stroke: #A80036; stroke-width: 1.0;"/><line style="stroke: #A80036; stroke-width: 1.0; stroke-dasharray: 2.0,2.0;" x1="294.5" x2="552.5" y1="564.6875" y2="564.6875"/><text fill="#000000" font-family="sans-serif" font-size="13" lengthAdjust="spacingAndGlyphs" textLength="25" x="301.5" y="559.6216">(ok)</text><!--
@startuml
"Wire owner" -> "LER": Get requests
"Wire owner" <- - "LER": (nothing new)
LER <- "Dig actor": Create dig request
LER - -> "Dig actor": (Created)
"Wire owner" -> LER: Retrieve requests (integration 10)
"Dig actor" -> LER: Retrieve status on wire packages
LER - -> "Wire owner": (Request info)
LER - -> "Dig actor": (Status: request in process)
"Wire owner" -> LER: Receit for request (11)
"Dig actor" -> LER: Retrieve Status of Wire package (25)
LER - -> "Wire owner": (ok)
LER - -> "Dig actor": (Status: In progress)
"Wire owner" -> LER: "Send dig request answers"
LER - -> "Wire owner": (ok)
"Dig actor" -> LER: Retrieve status on wire packages (25)
"Dig actor" <- LER: (Status: complete)
"Dig actor" -> LER: Receit for wire package (26)
"Dig actor" <- - LER: (ok) 
@enduml

PlantUML version 1.2018.13(Mon Nov 26 18:11:51 CET 2018)
(GPL source distribution)
Java Runtime: OpenJDK Runtime Environment
JVM: OpenJDK 64-Bit Server VM
Java Version: 1.8.0_282-8u282-b08-0ubuntu1~20.04-b08
Operating System: Linux
OS Version: 5.4.0-66-generic
Default Encoding: UTF-8
Language: en
Country: US
--></g></svg>